<svg xmlns="http://www.w3.org/2000/svg" viewBox="0 0 1600 1000" role="img" aria-labelledby="title desc">
  <title id="title">Architectural finish sketch</title>
  <desc id="desc">Architectural sketch composition with floor plan, elevation lines, material notes and restrained premium drafting aesthetic.</desc>
  <defs>
    <linearGradient id="bg" x1="0" y1="0" x2="1" y2="1">
      <stop offset="0%" stop-color="#0b1018"/>
      <stop offset="55%" stop-color="#111827"/>
      <stop offset="100%" stop-color="#0f1726"/>
    </linearGradient>
    <linearGradient id="glow" x1="0" y1="0" x2="1" y2="1">
      <stop offset="0%" stop-color="#b9c4d4" stop-opacity="0.22"/>
      <stop offset="100%" stop-color="#5fa4ff" stop-opacity="0.06"/>
    </linearGradient>
    <filter id="blur"><feGaussianBlur stdDeviation="28"/></filter>
  </defs>
  <rect width="1600" height="1000" fill="url(#bg)"/>
  <circle cx="1260" cy="190" r="220" fill="#85b6ff" opacity="0.06" filter="url(#blur)"/>
  <circle cx="280" cy="770" r="250" fill="#d3d8e2" opacity="0.07" filter="url(#blur)"/>
  <g stroke="#e7edf7" stroke-opacity="0.86" fill="none" stroke-width="2.1">
    <path d="M125 165H815V735H125z"/>
    <path d="M260 165v210M455 165v350M640 165v570M125 335h515M260 515h380M455 635h185"/>
    <path d="M890 230h420v465H890zM1048 230v465M1176 298h134v397M890 442h420"/>
    <path d="M134 800h682M72 115H815M72 115v620M890 172h420" stroke-dasharray="8 10" stroke-opacity="0.34"/>
    <circle cx="455" cy="335" r="12" stroke="#8fc0ff" stroke-width="3"/>
    <path d="M455 335h145M455 335V165" stroke="#8fc0ff" stroke-width="3"/>
  </g>
  <g font-family="Inter, Arial, sans-serif" fill="#d8dfeb">
    <text x="126" y="95" font-size="17" letter-spacing="5" opacity="0.72">LIVANE / FINISH STUDY / 01</text>
    <text x="126" y="842" font-size="15" letter-spacing="4" opacity="0.52">SUBSTRATE · ALIGNMENT · TRANSITION · JOINT · HARDWARE · WATERPROOFING</text>
    <text x="902" y="196" font-size="15" letter-spacing="4" opacity="0.54">ELEVATION / MATERIAL STACK</text>
  </g>
  <g font-family="Inter, Arial, sans-serif" font-size="16" fill="#e9eef7">
    <rect x="1086" y="90" width="300" height="92" rx="10" fill="url(#glow)" stroke="#e7edf7" stroke-opacity="0.16"/>
    <text x="1118" y="126" letter-spacing="2" opacity="0.6">DRAWING NOTES</text>
    <text x="1118" y="156" opacity="0.93">• finish-driven planning</text>
    <text x="1118" y="178" opacity="0.93">• clean sequencing</text>
    <text x="1118" y="200" opacity="0.93">• material + execution</text>
  </g>
  <g>
    <rect x="146" y="210" width="150" height="78" rx="8" fill="#f1f5fb" fill-opacity="0.04" stroke="#f1f5fb" stroke-opacity="0.16"/>
    <text x="170" y="245" font-family="Inter, Arial, sans-serif" font-size="15" letter-spacing="2" fill="#f1f5fb" fill-opacity="0.58">01</text>
    <text x="170" y="272" font-family="Inter, Arial, sans-serif" font-size="22" fill="#ffffff">Finish plan</text>
    <rect x="552" y="286" width="190" height="88" rx="8" fill="#f1f5fb" fill-opacity="0.04" stroke="#f1f5fb" stroke-opacity="0.16"/>
    <text x="576" y="321" font-family="Inter, Arial, sans-serif" font-size="15" letter-spacing="2" fill="#f1f5fb" fill-opacity="0.58">02</text>
    <text x="576" y="348" font-family="Inter, Arial, sans-serif" font-size="22" fill="#ffffff">Line + proportion</text>
    <rect x="980" y="570" width="208" height="88" rx="8" fill="#f1f5fb" fill-opacity="0.04" stroke="#f1f5fb" stroke-opacity="0.16"/>
    <text x="1004" y="605" font-family="Inter, Arial, sans-serif" font-size="15" letter-spacing="2" fill="#f1f5fb" fill-opacity="0.58">03</text>
    <text x="1004" y="632" font-family="Inter, Arial, sans-serif" font-size="22" fill="#ffffff">Surface detail</text>
  </g>
  <g font-family="Inter, Arial, sans-serif" fill="#8fc0ff">
    <text x="1380" y="925" font-size="18" letter-spacing="7">MIAMI / SOUTH FLORIDA</text>
  </g>
</svg>